<mxfile host="app.diagrams.net" modified="2021-05-28T11:56:50.270Z" agent="5.0 (Macintosh; Intel Mac OS X 10_15_7) AppleWebKit/537.36 (KHTML, like Gecko) Chrome/90.0.4430.212 Safari/537.36" etag="h7oZZiMdeWTK9_uWvum_" version="14.7.2" type="github" pages="4">
  <diagram id="XrOp-hCifYHvVCoy_8z_" name="Works">
    <mxGraphModel dx="946" dy="613" grid="1" gridSize="10" guides="1" tooltips="1" connect="1" arrows="1" fold="1" page="1" pageScale="1" pageWidth="827" pageHeight="1169" math="0" shadow="0">
      <root>
        <mxCell id="0" />
        <mxCell id="1" parent="0" />
        <mxCell id="n34ojIebNzXvLdfFtZpw-1" value="FunctionBase升级" style="rounded=0;whiteSpace=wrap;html=1;" vertex="1" parent="1">
          <mxGeometry x="390" y="120" width="136" height="50" as="geometry" />
        </mxCell>
        <mxCell id="n34ojIebNzXvLdfFtZpw-3" value="Op写法简化" style="rounded=0;whiteSpace=wrap;html=1;" vertex="1" parent="1">
          <mxGeometry x="160" y="220" width="136" height="50" as="geometry" />
        </mxCell>
        <mxCell id="n34ojIebNzXvLdfFtZpw-4" value="FunctionKernel管理" style="rounded=0;whiteSpace=wrap;html=1;" vertex="1" parent="1">
          <mxGeometry x="390" y="220" width="136" height="50" as="geometry" />
        </mxCell>
        <mxCell id="n34ojIebNzXvLdfFtZpw-5" value="动态图执行兼容" style="rounded=0;whiteSpace=wrap;html=1;" vertex="1" parent="1">
          <mxGeometry x="260" y="400" width="136" height="50" as="geometry" />
        </mxCell>
        <mxCell id="n34ojIebNzXvLdfFtZpw-6" value="静态图执行兼容" style="rounded=0;whiteSpace=wrap;html=1;" vertex="1" parent="1">
          <mxGeometry x="490" y="400" width="136" height="50" as="geometry" />
        </mxCell>
        <mxCell id="n34ojIebNzXvLdfFtZpw-7" value="C++ API目录梳理" style="rounded=0;whiteSpace=wrap;html=1;" vertex="1" parent="1">
          <mxGeometry x="620" y="220" width="136" height="50" as="geometry" />
        </mxCell>
      </root>
    </mxGraphModel>
  </diagram>
  <diagram id="uijFHvmT4Csf2FrLwu89" name="torch-path">
    <mxGraphModel dx="946" dy="613" grid="1" gridSize="10" guides="1" tooltips="1" connect="1" arrows="1" fold="1" page="1" pageScale="1" pageWidth="827" pageHeight="1169" math="0" shadow="0">
      <root>
        <mxCell id="A5d_hz3Pc_tX-qH7mz_q-0" />
        <mxCell id="A5d_hz3Pc_tX-qH7mz_q-1" parent="A5d_hz3Pc_tX-qH7mz_q-0" />
        <mxCell id="A5d_hz3Pc_tX-qH7mz_q-22" value="" style="rounded=0;whiteSpace=wrap;html=1;dashed=1;fillColor=none;" vertex="1" parent="A5d_hz3Pc_tX-qH7mz_q-1">
          <mxGeometry x="180" y="240" width="410" height="230" as="geometry" />
        </mxCell>
        <mxCell id="A5d_hz3Pc_tX-qH7mz_q-6" style="edgeStyle=orthogonalEdgeStyle;rounded=0;orthogonalLoop=1;jettySize=auto;html=1;exitX=0.5;exitY=1;exitDx=0;exitDy=0;entryX=0.5;entryY=0;entryDx=0;entryDy=0;" edge="1" parent="A5d_hz3Pc_tX-qH7mz_q-1" source="A5d_hz3Pc_tX-qH7mz_q-2" target="A5d_hz3Pc_tX-qH7mz_q-3">
          <mxGeometry relative="1" as="geometry" />
        </mxCell>
        <mxCell id="A5d_hz3Pc_tX-qH7mz_q-2" value="torch.add" style="rounded=0;whiteSpace=wrap;html=1;" vertex="1" parent="A5d_hz3Pc_tX-qH7mz_q-1">
          <mxGeometry x="260" y="120" width="130" height="40" as="geometry" />
        </mxCell>
        <mxCell id="A5d_hz3Pc_tX-qH7mz_q-7" style="edgeStyle=orthogonalEdgeStyle;rounded=0;orthogonalLoop=1;jettySize=auto;html=1;exitX=0.5;exitY=1;exitDx=0;exitDy=0;" edge="1" parent="A5d_hz3Pc_tX-qH7mz_q-1" source="A5d_hz3Pc_tX-qH7mz_q-3" target="A5d_hz3Pc_tX-qH7mz_q-4">
          <mxGeometry relative="1" as="geometry" />
        </mxCell>
        <mxCell id="A5d_hz3Pc_tX-qH7mz_q-3" value="at::Tensor::add" style="rounded=0;whiteSpace=wrap;html=1;" vertex="1" parent="A5d_hz3Pc_tX-qH7mz_q-1">
          <mxGeometry x="260" y="190" width="130" height="40" as="geometry" />
        </mxCell>
        <mxCell id="A5d_hz3Pc_tX-qH7mz_q-8" style="edgeStyle=orthogonalEdgeStyle;rounded=0;orthogonalLoop=1;jettySize=auto;html=1;exitX=0.5;exitY=1;exitDx=0;exitDy=0;" edge="1" parent="A5d_hz3Pc_tX-qH7mz_q-1" source="A5d_hz3Pc_tX-qH7mz_q-4">
          <mxGeometry relative="1" as="geometry">
            <mxPoint x="325" y="330" as="targetPoint" />
          </mxGeometry>
        </mxCell>
        <mxCell id="A5d_hz3Pc_tX-qH7mz_q-4" value="Dispatcher" style="rounded=0;whiteSpace=wrap;html=1;fillColor=#d5e8d4;strokeColor=#82b366;" vertex="1" parent="A5d_hz3Pc_tX-qH7mz_q-1">
          <mxGeometry x="260" y="260" width="130" height="40" as="geometry" />
        </mxCell>
        <mxCell id="A5d_hz3Pc_tX-qH7mz_q-13" value="" style="edgeStyle=orthogonalEdgeStyle;rounded=0;orthogonalLoop=1;jettySize=auto;html=1;" edge="1" parent="A5d_hz3Pc_tX-qH7mz_q-1" source="A5d_hz3Pc_tX-qH7mz_q-5" target="A5d_hz3Pc_tX-qH7mz_q-9">
          <mxGeometry relative="1" as="geometry" />
        </mxCell>
        <mxCell id="A5d_hz3Pc_tX-qH7mz_q-20" style="edgeStyle=orthogonalEdgeStyle;rounded=0;orthogonalLoop=1;jettySize=auto;html=1;exitX=0.5;exitY=1;exitDx=0;exitDy=0;" edge="1" parent="A5d_hz3Pc_tX-qH7mz_q-1" source="A5d_hz3Pc_tX-qH7mz_q-5">
          <mxGeometry relative="1" as="geometry">
            <mxPoint x="325" y="490" as="targetPoint" />
          </mxGeometry>
        </mxCell>
        <mxCell id="A5d_hz3Pc_tX-qH7mz_q-5" value="call final add(args...)" style="rounded=0;whiteSpace=wrap;html=1;" vertex="1" parent="A5d_hz3Pc_tX-qH7mz_q-1">
          <mxGeometry x="250" y="420" width="150" height="40" as="geometry" />
        </mxCell>
        <mxCell id="A5d_hz3Pc_tX-qH7mz_q-11" style="edgeStyle=orthogonalEdgeStyle;rounded=0;orthogonalLoop=1;jettySize=auto;html=1;exitX=0.5;exitY=1;exitDx=0;exitDy=0;entryX=0.5;entryY=0;entryDx=0;entryDy=0;" edge="1" parent="A5d_hz3Pc_tX-qH7mz_q-1" source="A5d_hz3Pc_tX-qH7mz_q-9" target="A5d_hz3Pc_tX-qH7mz_q-5">
          <mxGeometry relative="1" as="geometry" />
        </mxCell>
        <mxCell id="A5d_hz3Pc_tX-qH7mz_q-12" value="Yes" style="edgeLabel;html=1;align=center;verticalAlign=middle;resizable=0;points=[];" vertex="1" connectable="0" parent="A5d_hz3Pc_tX-qH7mz_q-11">
          <mxGeometry x="-0.4667" y="-1" relative="1" as="geometry">
            <mxPoint y="9" as="offset" />
          </mxGeometry>
        </mxCell>
        <mxCell id="A5d_hz3Pc_tX-qH7mz_q-16" style="edgeStyle=orthogonalEdgeStyle;rounded=0;orthogonalLoop=1;jettySize=auto;html=1;exitX=1;exitY=0.5;exitDx=0;exitDy=0;" edge="1" parent="A5d_hz3Pc_tX-qH7mz_q-1" source="A5d_hz3Pc_tX-qH7mz_q-9" target="A5d_hz3Pc_tX-qH7mz_q-15">
          <mxGeometry relative="1" as="geometry" />
        </mxCell>
        <mxCell id="A5d_hz3Pc_tX-qH7mz_q-19" value="No" style="edgeLabel;html=1;align=center;verticalAlign=middle;resizable=0;points=[];" vertex="1" connectable="0" parent="A5d_hz3Pc_tX-qH7mz_q-16">
          <mxGeometry x="-0.72" y="1" relative="1" as="geometry">
            <mxPoint x="9" y="1" as="offset" />
          </mxGeometry>
        </mxCell>
        <mxCell id="A5d_hz3Pc_tX-qH7mz_q-9" value="End Function?" style="rhombus;whiteSpace=wrap;html=1;" vertex="1" parent="A5d_hz3Pc_tX-qH7mz_q-1">
          <mxGeometry x="240" y="330" width="170" height="50" as="geometry" />
        </mxCell>
        <mxCell id="A5d_hz3Pc_tX-qH7mz_q-17" style="edgeStyle=orthogonalEdgeStyle;rounded=0;orthogonalLoop=1;jettySize=auto;html=1;entryX=1;entryY=0.5;entryDx=0;entryDy=0;" edge="1" parent="A5d_hz3Pc_tX-qH7mz_q-1" source="A5d_hz3Pc_tX-qH7mz_q-15" target="A5d_hz3Pc_tX-qH7mz_q-4">
          <mxGeometry relative="1" as="geometry">
            <Array as="points">
              <mxPoint x="510" y="280" />
            </Array>
          </mxGeometry>
        </mxCell>
        <mxCell id="A5d_hz3Pc_tX-qH7mz_q-18" value="redispatch" style="edgeLabel;html=1;align=center;verticalAlign=middle;resizable=0;points=[];" vertex="1" connectable="0" parent="A5d_hz3Pc_tX-qH7mz_q-17">
          <mxGeometry x="0.0057" y="-3" relative="1" as="geometry">
            <mxPoint as="offset" />
          </mxGeometry>
        </mxCell>
        <mxCell id="A5d_hz3Pc_tX-qH7mz_q-15" value="call add(args..)" style="rounded=0;whiteSpace=wrap;html=1;" vertex="1" parent="A5d_hz3Pc_tX-qH7mz_q-1">
          <mxGeometry x="450" y="335" width="130" height="40" as="geometry" />
        </mxCell>
        <mxCell id="uyT6K0spE8InHr_mI0cZ-3" style="edgeStyle=orthogonalEdgeStyle;rounded=0;orthogonalLoop=1;jettySize=auto;html=1;exitX=0.5;exitY=1;exitDx=0;exitDy=0;" edge="1" parent="A5d_hz3Pc_tX-qH7mz_q-1" source="A5d_hz3Pc_tX-qH7mz_q-21" target="uyT6K0spE8InHr_mI0cZ-1">
          <mxGeometry relative="1" as="geometry" />
        </mxCell>
        <mxCell id="A5d_hz3Pc_tX-qH7mz_q-21" value="return Tensor" style="rounded=0;whiteSpace=wrap;html=1;" vertex="1" parent="A5d_hz3Pc_tX-qH7mz_q-1">
          <mxGeometry x="250" y="490" width="150" height="40" as="geometry" />
        </mxCell>
        <mxCell id="A5d_hz3Pc_tX-qH7mz_q-23" value="找对应Function，然后调用" style="text;html=1;strokeColor=none;fillColor=none;align=center;verticalAlign=middle;whiteSpace=wrap;rounded=0;dashed=1;" vertex="1" parent="A5d_hz3Pc_tX-qH7mz_q-1">
          <mxGeometry x="412" y="430" width="170" height="20" as="geometry" />
        </mxCell>
        <mxCell id="uyT6K0spE8InHr_mI0cZ-2" style="edgeStyle=orthogonalEdgeStyle;rounded=0;orthogonalLoop=1;jettySize=auto;html=1;exitX=0.5;exitY=1;exitDx=0;exitDy=0;entryX=0.5;entryY=0;entryDx=0;entryDy=0;" edge="1" parent="A5d_hz3Pc_tX-qH7mz_q-1" source="uyT6K0spE8InHr_mI0cZ-0" target="A5d_hz3Pc_tX-qH7mz_q-2">
          <mxGeometry relative="1" as="geometry" />
        </mxCell>
        <mxCell id="uyT6K0spE8InHr_mI0cZ-0" value="开始" style="ellipse;whiteSpace=wrap;html=1;fillColor=none;" vertex="1" parent="A5d_hz3Pc_tX-qH7mz_q-1">
          <mxGeometry x="280" y="40" width="90" height="50" as="geometry" />
        </mxCell>
        <mxCell id="uyT6K0spE8InHr_mI0cZ-1" value="结束" style="ellipse;whiteSpace=wrap;html=1;fillColor=none;" vertex="1" parent="A5d_hz3Pc_tX-qH7mz_q-1">
          <mxGeometry x="280" y="554" width="90" height="50" as="geometry" />
        </mxCell>
      </root>
    </mxGraphModel>
  </diagram>
  <diagram id="smlrrGMJzqwVLhW_2PGJ" name="torch-kernel-map">
    <mxGraphModel dx="1351" dy="876" grid="1" gridSize="10" guides="1" tooltips="1" connect="1" arrows="1" fold="1" page="1" pageScale="1" pageWidth="827" pageHeight="1169" math="0" shadow="0">
      <root>
        <mxCell id="BPAwpm5ggYktsfZXQc4k-0" />
        <mxCell id="BPAwpm5ggYktsfZXQc4k-1" parent="BPAwpm5ggYktsfZXQc4k-0" />
        <mxCell id="2fdXsau52CznlgpsPmPc-6" value="Dispatcher" style="swimlane;fontStyle=0;childLayout=stackLayout;horizontal=1;startSize=26;fillColor=none;horizontalStack=0;resizeParent=1;resizeParentMax=0;resizeLast=0;collapsible=1;marginBottom=0;labelBackgroundColor=#ffffff;fontSize=13;fontColor=#000000;" vertex="1" parent="BPAwpm5ggYktsfZXQc4k-1">
          <mxGeometry x="101" y="110" width="570" height="52" as="geometry" />
        </mxCell>
        <mxCell id="2fdXsau52CznlgpsPmPc-7" value="+ field: LeftRight&lt;ska::flat_hash_map&lt;OperatorName, OperatorHandle&gt;&gt; operatorLookupTable_" style="text;strokeColor=none;fillColor=none;align=left;verticalAlign=top;spacingLeft=4;spacingRight=4;overflow=hidden;rotatable=0;points=[[0,0.5],[1,0.5]];portConstraint=eastwest;fontStyle=1" vertex="1" parent="2fdXsau52CznlgpsPmPc-6">
          <mxGeometry y="26" width="570" height="26" as="geometry" />
        </mxCell>
        <mxCell id="2fdXsau52CznlgpsPmPc-10" value="" style="endArrow=block;endFill=1;html=1;edgeStyle=orthogonalEdgeStyle;align=left;verticalAlign=top;fontSize=13;fontColor=#000000;exitX=0.5;exitY=0.962;exitDx=0;exitDy=0;exitPerimeter=0;" edge="1" parent="BPAwpm5ggYktsfZXQc4k-1" source="2fdXsau52CznlgpsPmPc-7" target="2fdXsau52CznlgpsPmPc-16">
          <mxGeometry x="-1" relative="1" as="geometry">
            <mxPoint x="320" y="300" as="sourcePoint" />
            <mxPoint x="397" y="200" as="targetPoint" />
          </mxGeometry>
        </mxCell>
        <mxCell id="2fdXsau52CznlgpsPmPc-11" value="1" style="edgeLabel;resizable=0;html=1;align=left;verticalAlign=bottom;" connectable="0" vertex="1" parent="2fdXsau52CznlgpsPmPc-10">
          <mxGeometry x="-1" relative="1" as="geometry">
            <mxPoint x="10" y="18" as="offset" />
          </mxGeometry>
        </mxCell>
        <mxCell id="2fdXsau52CznlgpsPmPc-16" value="OperatorHandle" style="swimlane;fontStyle=0;childLayout=stackLayout;horizontal=1;startSize=26;fillColor=none;horizontalStack=0;resizeParent=1;resizeParentMax=0;resizeLast=0;collapsible=1;marginBottom=0;labelBackgroundColor=#ffffff;fontSize=13;fontColor=#000000;" vertex="1" parent="BPAwpm5ggYktsfZXQc4k-1">
          <mxGeometry x="306" y="210" width="160" height="52" as="geometry" />
        </mxCell>
        <mxCell id="2fdXsau52CznlgpsPmPc-17" value="+ field: OperatorDef" style="text;strokeColor=none;fillColor=none;align=left;verticalAlign=top;spacingLeft=4;spacingRight=4;overflow=hidden;rotatable=0;points=[[0,0.5],[1,0.5]];portConstraint=eastwest;fontStyle=1" vertex="1" parent="2fdXsau52CznlgpsPmPc-16">
          <mxGeometry y="26" width="160" height="26" as="geometry" />
        </mxCell>
        <mxCell id="2fdXsau52CznlgpsPmPc-18" value="OperatorDef" style="swimlane;fontStyle=0;childLayout=stackLayout;horizontal=1;startSize=26;fillColor=none;horizontalStack=0;resizeParent=1;resizeParentMax=0;resizeLast=0;collapsible=1;marginBottom=0;labelBackgroundColor=#ffffff;fontSize=13;fontColor=#000000;" vertex="1" parent="BPAwpm5ggYktsfZXQc4k-1">
          <mxGeometry x="305" y="310" width="160" height="52" as="geometry" />
        </mxCell>
        <mxCell id="2fdXsau52CznlgpsPmPc-19" value="+ field: OperatorEntry" style="text;strokeColor=none;fillColor=none;align=left;verticalAlign=top;spacingLeft=4;spacingRight=4;overflow=hidden;rotatable=0;points=[[0,0.5],[1,0.5]];portConstraint=eastwest;fontStyle=1" vertex="1" parent="2fdXsau52CznlgpsPmPc-18">
          <mxGeometry y="26" width="160" height="26" as="geometry" />
        </mxCell>
        <mxCell id="2fdXsau52CznlgpsPmPc-27" value="OperatorEntry" style="swimlane;fontStyle=0;childLayout=stackLayout;horizontal=1;startSize=26;fillColor=none;horizontalStack=0;resizeParent=1;resizeParentMax=0;resizeLast=0;collapsible=1;marginBottom=0;labelBackgroundColor=#ffffff;fontSize=13;fontColor=#000000;" vertex="1" parent="BPAwpm5ggYktsfZXQc4k-1">
          <mxGeometry x="69" y="410" width="640" height="78" as="geometry" />
        </mxCell>
        <mxCell id="2fdXsau52CznlgpsPmPc-28" value="+ field: std::array&lt;KernelFunction, static_cast&lt;uint8_t&gt;(DispatchKey::NumDispatchKeys)&gt; dispatchTable_" style="text;strokeColor=none;fillColor=none;align=left;verticalAlign=top;spacingLeft=4;spacingRight=4;overflow=hidden;rotatable=0;points=[[0,0.5],[1,0.5]];portConstraint=eastwest;fontStyle=1" vertex="1" parent="2fdXsau52CznlgpsPmPc-27">
          <mxGeometry y="26" width="640" height="26" as="geometry" />
        </mxCell>
        <mxCell id="2fdXsau52CznlgpsPmPc-30" value="+ field: ska::flat_hash_map&lt;DispatchKey, std::list&lt;AnnotatedKernel&gt;&gt; kernels_" style="text;strokeColor=none;fillColor=none;align=left;verticalAlign=top;spacingLeft=4;spacingRight=4;overflow=hidden;rotatable=0;points=[[0,0.5],[1,0.5]];portConstraint=eastwest;fontStyle=1" vertex="1" parent="2fdXsau52CznlgpsPmPc-27">
          <mxGeometry y="52" width="640" height="26" as="geometry" />
        </mxCell>
        <mxCell id="2fdXsau52CznlgpsPmPc-31" value="" style="endArrow=block;endFill=1;html=1;edgeStyle=orthogonalEdgeStyle;align=left;verticalAlign=top;fontSize=13;fontColor=#000000;exitX=0.494;exitY=1;exitDx=0;exitDy=0;exitPerimeter=0;entryX=0.5;entryY=0;entryDx=0;entryDy=0;" edge="1" parent="BPAwpm5ggYktsfZXQc4k-1" source="2fdXsau52CznlgpsPmPc-17" target="2fdXsau52CznlgpsPmPc-18">
          <mxGeometry x="-0.688" y="27" relative="1" as="geometry">
            <mxPoint x="430" y="290" as="sourcePoint" />
            <mxPoint x="590" y="290" as="targetPoint" />
            <mxPoint as="offset" />
          </mxGeometry>
        </mxCell>
        <mxCell id="2fdXsau52CznlgpsPmPc-34" value="1" style="endArrow=open;html=1;endSize=12;startArrow=diamondThin;startSize=14;startFill=1;edgeStyle=orthogonalEdgeStyle;align=left;verticalAlign=bottom;fontSize=13;fontColor=#000000;entryX=0.5;entryY=0;entryDx=0;entryDy=0;exitX=0.521;exitY=1.008;exitDx=0;exitDy=0;exitPerimeter=0;" edge="1" parent="BPAwpm5ggYktsfZXQc4k-1" source="2fdXsau52CznlgpsPmPc-19" target="2fdXsau52CznlgpsPmPc-27">
          <mxGeometry x="-0.2399" y="11" relative="1" as="geometry">
            <mxPoint x="80" y="300" as="sourcePoint" />
            <mxPoint x="540" y="380" as="targetPoint" />
            <Array as="points">
              <mxPoint x="388" y="370" />
              <mxPoint x="389" y="370" />
            </Array>
            <mxPoint as="offset" />
          </mxGeometry>
        </mxCell>
      </root>
    </mxGraphModel>
  </diagram>
  <diagram id="6axu3NIi326B4P9u1fRu" name="paddle-path">
    <mxGraphModel dx="946" dy="613" grid="1" gridSize="10" guides="1" tooltips="1" connect="1" arrows="1" fold="1" page="1" pageScale="1" pageWidth="827" pageHeight="1169" math="0" shadow="0">
      <root>
        <mxCell id="OydSE7Ss0IEXl4ENJlcu-0" />
        <mxCell id="OydSE7Ss0IEXl4ENJlcu-1" parent="OydSE7Ss0IEXl4ENJlcu-0" />
        <mxCell id="Jgr0bRMLufQ3TRwM39J3-4" style="edgeStyle=orthogonalEdgeStyle;rounded=0;orthogonalLoop=1;jettySize=auto;html=1;exitX=0.5;exitY=1;exitDx=0;exitDy=0;fontSize=13;fontColor=#000000;" edge="1" parent="OydSE7Ss0IEXl4ENJlcu-1" source="NwfbzU9ibvw_dipLc5Nz-0" target="NwfbzU9ibvw_dipLc5Nz-3">
          <mxGeometry relative="1" as="geometry" />
        </mxCell>
        <mxCell id="NwfbzU9ibvw_dipLc5Nz-0" value="paddle.add" style="rounded=0;whiteSpace=wrap;html=1;fillColor=none;" vertex="1" parent="OydSE7Ss0IEXl4ENJlcu-1">
          <mxGeometry x="195" y="174" width="120" height="40" as="geometry" />
        </mxCell>
        <mxCell id="Jgr0bRMLufQ3TRwM39J3-5" style="edgeStyle=orthogonalEdgeStyle;rounded=0;orthogonalLoop=1;jettySize=auto;html=1;exitX=0.5;exitY=1;exitDx=0;exitDy=0;fontSize=13;fontColor=#000000;" edge="1" parent="OydSE7Ss0IEXl4ENJlcu-1" source="NwfbzU9ibvw_dipLc5Nz-3" target="NwfbzU9ibvw_dipLc5Nz-4">
          <mxGeometry relative="1" as="geometry" />
        </mxCell>
        <mxCell id="NwfbzU9ibvw_dipLc5Nz-3" value="if dygraph &amp;amp; core.ops.elementwise_add" style="rounded=0;whiteSpace=wrap;html=1;fillColor=#e1d5e7;strokeColor=#9673a6;" vertex="1" parent="OydSE7Ss0IEXl4ENJlcu-1">
          <mxGeometry x="140" y="243" width="230" height="40" as="geometry" />
        </mxCell>
        <mxCell id="Jgr0bRMLufQ3TRwM39J3-6" style="edgeStyle=orthogonalEdgeStyle;rounded=0;orthogonalLoop=1;jettySize=auto;html=1;exitX=0.5;exitY=1;exitDx=0;exitDy=0;entryX=0.5;entryY=0;entryDx=0;entryDy=0;fontSize=13;fontColor=#000000;" edge="1" parent="OydSE7Ss0IEXl4ENJlcu-1" source="NwfbzU9ibvw_dipLc5Nz-4">
          <mxGeometry relative="1" as="geometry">
            <mxPoint x="255" y="382" as="targetPoint" />
          </mxGeometry>
        </mxCell>
        <mxCell id="NwfbzU9ibvw_dipLc5Nz-4" value="build input&amp;amp;output&amp;amp;attr map&amp;nbsp;" style="rounded=0;whiteSpace=wrap;html=1;fillColor=#f8cecc;strokeColor=#b85450;" vertex="1" parent="OydSE7Ss0IEXl4ENJlcu-1">
          <mxGeometry x="140" y="313" width="230" height="40" as="geometry" />
        </mxCell>
        <mxCell id="Jgr0bRMLufQ3TRwM39J3-8" style="edgeStyle=orthogonalEdgeStyle;rounded=0;orthogonalLoop=1;jettySize=auto;html=1;exitX=0.5;exitY=1;exitDx=0;exitDy=0;fontSize=13;fontColor=#000000;" edge="1" parent="OydSE7Ss0IEXl4ENJlcu-1" source="KJLtOfmGV3E42OthESjS-1" target="KJLtOfmGV3E42OthESjS-2">
          <mxGeometry relative="1" as="geometry" />
        </mxCell>
        <mxCell id="KJLtOfmGV3E42OthESjS-1" value="CreateOp" style="rounded=0;whiteSpace=wrap;html=1;fillColor=#f8cecc;strokeColor=#b85450;" vertex="1" parent="OydSE7Ss0IEXl4ENJlcu-1">
          <mxGeometry x="202.5" y="381" width="105" height="40" as="geometry" />
        </mxCell>
        <mxCell id="Jgr0bRMLufQ3TRwM39J3-10" style="edgeStyle=orthogonalEdgeStyle;rounded=0;orthogonalLoop=1;jettySize=auto;html=1;exitX=0.5;exitY=1;exitDx=0;exitDy=0;entryX=0.5;entryY=0;entryDx=0;entryDy=0;fontSize=13;fontColor=#000000;" edge="1" parent="OydSE7Ss0IEXl4ENJlcu-1" source="KJLtOfmGV3E42OthESjS-2" target="KJLtOfmGV3E42OthESjS-3">
          <mxGeometry relative="1" as="geometry" />
        </mxCell>
        <mxCell id="KJLtOfmGV3E42OthESjS-2" value="AttrChecker-&amp;gt;Check" style="rounded=0;whiteSpace=wrap;html=1;fillColor=#e1d5e7;strokeColor=#9673a6;" vertex="1" parent="OydSE7Ss0IEXl4ENJlcu-1">
          <mxGeometry x="178.75" y="450" width="152.5" height="40" as="geometry" />
        </mxCell>
        <mxCell id="Jgr0bRMLufQ3TRwM39J3-11" style="edgeStyle=orthogonalEdgeStyle;rounded=0;orthogonalLoop=1;jettySize=auto;html=1;exitX=0.5;exitY=1;exitDx=0;exitDy=0;entryX=0.5;entryY=0;entryDx=0;entryDy=0;fontSize=13;fontColor=#000000;" edge="1" parent="OydSE7Ss0IEXl4ENJlcu-1" source="KJLtOfmGV3E42OthESjS-3" target="KJLtOfmGV3E42OthESjS-5">
          <mxGeometry relative="1" as="geometry" />
        </mxCell>
        <mxCell id="KJLtOfmGV3E42OthESjS-3" value="InferVarType" style="rounded=0;whiteSpace=wrap;html=1;fillColor=#f8cecc;strokeColor=#b85450;" vertex="1" parent="OydSE7Ss0IEXl4ENJlcu-1">
          <mxGeometry x="178.75" y="519" width="152.5" height="40" as="geometry" />
        </mxCell>
        <mxCell id="Jgr0bRMLufQ3TRwM39J3-12" style="edgeStyle=orthogonalEdgeStyle;rounded=0;orthogonalLoop=1;jettySize=auto;html=1;exitX=0.5;exitY=1;exitDx=0;exitDy=0;fontSize=13;fontColor=#000000;" edge="1" parent="OydSE7Ss0IEXl4ENJlcu-1" source="KJLtOfmGV3E42OthESjS-5" target="KJLtOfmGV3E42OthESjS-6">
          <mxGeometry relative="1" as="geometry" />
        </mxCell>
        <mxCell id="KJLtOfmGV3E42OthESjS-5" value="GetExpectedKernelType" style="rounded=0;whiteSpace=wrap;html=1;fillColor=#f8cecc;strokeColor=#b85450;" vertex="1" parent="OydSE7Ss0IEXl4ENJlcu-1">
          <mxGeometry x="171.88" y="588" width="166.25" height="40" as="geometry" />
        </mxCell>
        <mxCell id="Jgr0bRMLufQ3TRwM39J3-13" style="edgeStyle=orthogonalEdgeStyle;rounded=0;orthogonalLoop=1;jettySize=auto;html=1;exitX=0.5;exitY=1;exitDx=0;exitDy=0;fontSize=13;fontColor=#000000;" edge="1" parent="OydSE7Ss0IEXl4ENJlcu-1" source="KJLtOfmGV3E42OthESjS-6" target="KJLtOfmGV3E42OthESjS-7">
          <mxGeometry relative="1" as="geometry" />
        </mxCell>
        <mxCell id="KJLtOfmGV3E42OthESjS-6" value="Find Kernel" style="rounded=0;whiteSpace=wrap;html=1;fillColor=#f8cecc;strokeColor=#b85450;" vertex="1" parent="OydSE7Ss0IEXl4ENJlcu-1">
          <mxGeometry x="171.88" y="658" width="166.25" height="40" as="geometry" />
        </mxCell>
        <mxCell id="Jgr0bRMLufQ3TRwM39J3-14" style="edgeStyle=orthogonalEdgeStyle;rounded=0;orthogonalLoop=1;jettySize=auto;html=1;exitX=0.5;exitY=1;exitDx=0;exitDy=0;entryX=0.5;entryY=0;entryDx=0;entryDy=0;fontSize=13;fontColor=#000000;" edge="1" parent="OydSE7Ss0IEXl4ENJlcu-1" source="KJLtOfmGV3E42OthESjS-7" target="KJLtOfmGV3E42OthESjS-8">
          <mxGeometry relative="1" as="geometry" />
        </mxCell>
        <mxCell id="KJLtOfmGV3E42OthESjS-7" value="InferShape" style="rounded=0;whiteSpace=wrap;html=1;fillColor=#f8cecc;strokeColor=#b85450;" vertex="1" parent="OydSE7Ss0IEXl4ENJlcu-1">
          <mxGeometry x="171.88" y="727" width="166.25" height="40" as="geometry" />
        </mxCell>
        <mxCell id="Jgr0bRMLufQ3TRwM39J3-15" style="edgeStyle=orthogonalEdgeStyle;rounded=0;orthogonalLoop=1;jettySize=auto;html=1;exitX=0.5;exitY=1;exitDx=0;exitDy=0;entryX=0.5;entryY=0;entryDx=0;entryDy=0;fontSize=13;fontColor=#000000;" edge="1" parent="OydSE7Ss0IEXl4ENJlcu-1" source="KJLtOfmGV3E42OthESjS-8" target="Jgr0bRMLufQ3TRwM39J3-2">
          <mxGeometry relative="1" as="geometry" />
        </mxCell>
        <mxCell id="KJLtOfmGV3E42OthESjS-8" value="Run Kernel" style="rounded=0;whiteSpace=wrap;html=1;fillColor=#f8cecc;strokeColor=#b85450;" vertex="1" parent="OydSE7Ss0IEXl4ENJlcu-1">
          <mxGeometry x="171.88" y="796" width="166.25" height="40" as="geometry" />
        </mxCell>
        <mxCell id="Jgr0bRMLufQ3TRwM39J3-3" style="edgeStyle=orthogonalEdgeStyle;rounded=0;orthogonalLoop=1;jettySize=auto;html=1;exitX=0.5;exitY=1;exitDx=0;exitDy=0;entryX=0.5;entryY=0;entryDx=0;entryDy=0;fontSize=13;fontColor=#000000;" edge="1" parent="OydSE7Ss0IEXl4ENJlcu-1" source="Jgr0bRMLufQ3TRwM39J3-0" target="NwfbzU9ibvw_dipLc5Nz-0">
          <mxGeometry relative="1" as="geometry" />
        </mxCell>
        <mxCell id="Jgr0bRMLufQ3TRwM39J3-0" value="开始" style="ellipse;whiteSpace=wrap;html=1;fillColor=none;" vertex="1" parent="OydSE7Ss0IEXl4ENJlcu-1">
          <mxGeometry x="210" y="100" width="90" height="50" as="geometry" />
        </mxCell>
        <mxCell id="Jgr0bRMLufQ3TRwM39J3-2" value="结束" style="ellipse;whiteSpace=wrap;html=1;fillColor=none;" vertex="1" parent="OydSE7Ss0IEXl4ENJlcu-1">
          <mxGeometry x="210" y="860" width="90" height="50" as="geometry" />
        </mxCell>
        <mxCell id="Jgr0bRMLufQ3TRwM39J3-16" value="问题：将Tensor传入函数用于运算即可，map的构建本质上是不必要的，并且key还是string，访问低效" style="text;html=1;strokeColor=none;fillColor=none;align=left;verticalAlign=middle;whiteSpace=wrap;rounded=0;labelBackgroundColor=#ffffff;fontSize=13;fontColor=#000000;" vertex="1" parent="OydSE7Ss0IEXl4ENJlcu-1">
          <mxGeometry x="400" y="323" width="320" height="20" as="geometry" />
        </mxCell>
        <mxCell id="Jgr0bRMLufQ3TRwM39J3-17" value="问题：调用计算函数即可，本质上创建Op是不必要的" style="text;html=1;strokeColor=none;fillColor=none;align=left;verticalAlign=middle;whiteSpace=wrap;rounded=0;labelBackgroundColor=#ffffff;fontSize=13;fontColor=#000000;" vertex="1" parent="OydSE7Ss0IEXl4ENJlcu-1">
          <mxGeometry x="338.13" y="391" width="320" height="20" as="geometry" />
        </mxCell>
        <mxCell id="Jgr0bRMLufQ3TRwM39J3-18" value="问题：要先构建&lt;span style=&quot;font-family: museo, segoe, &amp;quot;segoe ui&amp;quot;, helvetica, arial, sans-serif;&quot;&gt;&lt;font style=&quot;font-size: 13px&quot;&gt;RuntimeInferVarTypeContext，map以string为key访问是低效的&lt;/font&gt;&lt;/span&gt;" style="text;html=1;strokeColor=none;fillColor=none;align=left;verticalAlign=middle;whiteSpace=wrap;rounded=0;labelBackgroundColor=#ffffff;fontSize=13;" vertex="1" parent="OydSE7Ss0IEXl4ENJlcu-1">
          <mxGeometry x="350" y="529" width="320" height="20" as="geometry" />
        </mxCell>
        <mxCell id="Jgr0bRMLufQ3TRwM39J3-19" value="问题：要先构建DygraphExecutionContext&lt;span style=&quot;font-family: museo, segoe, &amp;quot;segoe ui&amp;quot;, helvetica, arial, sans-serif;&quot;&gt;&lt;font style=&quot;font-size: 13px&quot;&gt;，map以string为key访问是低效的&lt;/font&gt;&lt;/span&gt;" style="text;html=1;strokeColor=none;fillColor=none;align=left;verticalAlign=middle;whiteSpace=wrap;rounded=0;labelBackgroundColor=#ffffff;fontSize=13;" vertex="1" parent="OydSE7Ss0IEXl4ENJlcu-1">
          <mxGeometry x="350" y="600" width="320" height="20" as="geometry" />
        </mxCell>
        <mxCell id="Jgr0bRMLufQ3TRwM39J3-20" value="问题：OpKernelType是一个复合结构，作为Key也是比较低效的" style="text;html=1;strokeColor=none;fillColor=none;align=left;verticalAlign=middle;whiteSpace=wrap;rounded=0;labelBackgroundColor=#ffffff;fontSize=13;fontColor=#000000;" vertex="1" parent="OydSE7Ss0IEXl4ENJlcu-1">
          <mxGeometry x="350" y="670" width="310" height="20" as="geometry" />
        </mxCell>
        <mxCell id="Jgr0bRMLufQ3TRwM39J3-21" value="问题：OpKernelType是一个复合结构，作为Key也是比较低效的" style="text;html=1;strokeColor=none;fillColor=none;align=left;verticalAlign=middle;whiteSpace=wrap;rounded=0;labelBackgroundColor=#ffffff;fontSize=13;fontColor=#000000;" vertex="1" parent="OydSE7Ss0IEXl4ENJlcu-1">
          <mxGeometry x="350" y="740" width="310" height="20" as="geometry" />
        </mxCell>
        <mxCell id="Jgr0bRMLufQ3TRwM39J3-22" value="问题：attr默认值填充效率差，王欢正在优化" style="text;html=1;strokeColor=none;fillColor=none;align=left;verticalAlign=middle;whiteSpace=wrap;rounded=0;labelBackgroundColor=#ffffff;fontSize=13;fontColor=#000000;" vertex="1" parent="OydSE7Ss0IEXl4ENJlcu-1">
          <mxGeometry x="360" y="460" width="320" height="20" as="geometry" />
        </mxCell>
        <mxCell id="Jgr0bRMLufQ3TRwM39J3-23" value="问题：第二次构建DygraphExecutionContext，执行过程中仍然是map以string作为key访问" style="text;html=1;strokeColor=none;fillColor=none;align=left;verticalAlign=middle;whiteSpace=wrap;rounded=0;labelBackgroundColor=#ffffff;fontSize=13;fontColor=#000000;" vertex="1" parent="OydSE7Ss0IEXl4ENJlcu-1">
          <mxGeometry x="355" y="806" width="310" height="20" as="geometry" />
        </mxCell>
        <mxCell id="Jgr0bRMLufQ3TRwM39J3-25" value="问题：Pybind交互效率差于PythonC，王欢正在优化" style="text;html=1;strokeColor=none;fillColor=none;align=left;verticalAlign=middle;whiteSpace=wrap;rounded=0;labelBackgroundColor=#ffffff;fontSize=13;fontColor=#000000;" vertex="1" parent="OydSE7Ss0IEXl4ENJlcu-1">
          <mxGeometry x="390" y="253" width="320" height="20" as="geometry" />
        </mxCell>
      </root>
    </mxGraphModel>
  </diagram>
</mxfile>
